<svg viewBox="0 0 400 400" xmlns="http://www.w3.org/2000/svg">

<g id="batisseur">
        <circle cx="200" cy="200" r="90" fill="#5D6D7E" opacity="0.2"/>
        <circle cx="200" cy="200" r="80" fill="#5D6D7E" opacity="0.3"/>
        <circle cx="200" cy="200" r="70" fill="#7F8C8D"/>
        
        <!-- Tête -->
        <circle cx="200" cy="185" r="25" fill="#2C3E50"/>
        
        <!-- Corps -->
        <path d="M 200 210 L 200 260" stroke="#2C3E50" stroke-width="10" stroke-linecap="round"/>
        
        <!-- Bras avec marteau -->
        <path d="M 200 225 L 170 235" stroke="#2C3E50" stroke-width="7" stroke-linecap="round"/>
        <path d="M 200 225 L 235 220" stroke="#2C3E50" stroke-width="7" stroke-linecap="round"/>
        
        <!-- Marteau -->
        <rect x="235" y="215" width="25" height="10" rx="2" fill="#95A5A6"/>
        <rect x="230" y="218" width="10" height="4" fill="#7F8C8D"/>
        
        <!-- Jambes -->
        <path d="M 200 260 L 185 295" stroke="#2C3E50" stroke-width="8" stroke-linecap="round"/>
        <path d="M 200 260 L 215 295" stroke="#2C3E50" stroke-width="8" stroke-linecap="round"/>
        
        <!-- Casque -->
        <path d="M 180 180 Q 200 165 220 180" stroke="#F39C12" stroke-width="4" fill="none" stroke-linecap="round"/>
        
        <!-- Engrenages décoratifs -->
        <circle cx="160" cy="170" r="12" fill="none" stroke="#95A5A6" stroke-width="3"/>
        <path d="M 160 158 L 160 182 M 148 170 L 172 170 M 152 162 L 168 178 M 152 178 L 168 162" stroke="#95A5A6" stroke-width="2"/>
        
        <circle cx="240" cy="185" r="10" fill="none" stroke="#95A5A6" stroke-width="2"/>
        <path d="M 240 175 L 240 195 M 230 185 L 250 185" stroke="#95A5A6" stroke-width="2"/>
  </g>
</svg>