<svg viewBox="0 0 400 400" xmlns="http://www.w3.org/2000/svg">
  <!-- Explorateur - Top Left -->
  <g id="explorateur">
    <circle cx="200" cy="200" r="90" fill="#FF8C42" opacity="0.2"/>
    <circle cx="200" cy="200" r="80" fill="#FF8C42" opacity="0.3"/>
    <circle cx="200" cy="200" r="70" fill="#FFA05C"/>
    
    <!-- Tête -->
    <circle cx="200" cy="185" r="25" fill="#2C3E50"/>
    
    <!-- Corps -->
    <path d="M 200 210 L 200 260" stroke="#2C3E50" stroke-width="8" stroke-linecap="round"/>
    
    <!-- Bras avec boussole -->
    <path d="M 200 225 L 170 245" stroke="#2C3E50" stroke-width="6" stroke-linecap="round"/>
    <path d="M 200 225 L 230 240" stroke="#2C3E50" stroke-width="6" stroke-linecap="round"/>
    <circle cx="230" cy="240" r="8" fill="#FFD93D" stroke="#2C3E50" stroke-width="2"/>
    
    <!-- Jambes -->
    <path d="M 200 260 L 180 295" stroke="#2C3E50" stroke-width="7" stroke-linecap="round"/>
    <path d="M 200 260 L 220 295" stroke="#2C3E50" stroke-width="7" stroke-linecap="round"/>
    
    <!-- Sac à dos -->
    <rect x="205" y="215" width="20" height="30" rx="5" fill="#8B4513"/>
    <path d="M 210 215 Q 215 205 220 215" stroke="#8B4513" stroke-width="3" fill="none"/>
    
    <!-- Étoiles décoratives -->
    <path d="M 230 160 L 233 168 L 241 168 L 235 173 L 237 181 L 230 176 L 223 181 L 225 173 L 219 168 L 227 168 Z" fill="#FFD93D"/>
    <path d="M 165 175 L 167 181 L 173 181 L 168 185 L 170 191 L 165 187 L 160 191 L 162 185 L 157 181 L 163 181 Z" fill="#FFD93D"/>
  </g>
</svg>