<svg viewBox="0 0 400 400" xmlns="http://www.w3.org/2000/svg">
<g id="explorateur_5">
    <circle cx="200" cy="200" r="90" fill="#FF8C42" opacity="0.3"/>
    <circle cx="200" cy="200" r="80" fill="#FF8C42" opacity="0.4"/>
    <circle cx="200" cy="200" r="70" fill="#FFA05C"/>
    
    <!-- Tête -->
    <circle cx="200" cy="185" r="25" fill="#2C3E50"/>
    
    <!-- Chapeau d'aventurier -->
    <ellipse cx="200" cy="165" rx="30" ry="8" fill="#8B4513"/>
    <path d="M 170 165 Q 200 145 230 165" fill="#A0522D"/>
    
    <!-- Corps -->
    <path d="M 200 210 L 200 260" stroke="#2C3E50" stroke-width="8" stroke-linecap="round"/>
    
    <!-- Cape -->
    <path d="M 190 215 Q 160 240 165 265" stroke="#C0392B" stroke-width="6" fill="none" stroke-linecap="round"/>
    <path d="M 210 215 Q 240 240 235 265" stroke="#C0392B" stroke-width="6" fill="none" stroke-linecap="round"/>
    
    <!-- Bras avec carte et boussole améliorée -->
    <path d="M 200 225 L 170 245" stroke="#2C3E50" stroke-width="6" stroke-linecap="round"/>
    <path d="M 200 225 L 235 240" stroke="#2C3E50" stroke-width="6" stroke-linecap="round"/>
    
    <!-- Carte dépliée -->
    <rect x="160" y="240" width="18" height="14" fill="#F4D03F" stroke="#2C3E50" stroke-width="1.5"/>
    <line x1="163" y1="243" x2="175" y2="243" stroke="#8B4513" stroke-width="0.5"/>
    <line x1="163" y1="246" x2="175" y2="246" stroke="#8B4513" stroke-width="0.5"/>
    
    <!-- Boussole dorée -->
    <circle cx="235" cy="240" r="10" fill="#F39C12" stroke="#2C3E50" stroke-width="2"/>
    <circle cx="235" cy="240" r="6" fill="#FFD93D"/>
    <line x1="235" y1="234" x2="235" y2="240" stroke="#C0392B" stroke-width="2"/>
    
    <!-- Jambes -->
    <path d="M 200 260 L 180 295" stroke="#2C3E50" stroke-width="7" stroke-linecap="round"/>
    <path d="M 200 260 L 220 295" stroke="#2C3E50" stroke-width="7" stroke-linecap="round"/>
    
    <!-- Sac à dos amélioré -->
    <rect x="205" y="215" width="25" height="35" rx="5" fill="#8B4513"/>
    <circle cx="217" cy="225" r="4" fill="#FFD93D"/>
    <rect x="210" y="240" width="5" height="8" fill="#A0522D"/>
    <rect x="220" y="240" width="5" height="8" fill="#A0522D"/>
    
    <!-- Étoiles multiples -->
    <path d="M 240 160 L 243 168 L 251 168 L 245 173 L 247 181 L 240 176 L 233 181 L 235 173 L 229 168 L 237 168 Z" fill="#FFD93D"/>
    <path d="M 160 175 L 163 181 L 169 181 L 164 185 L 166 191 L 160 187 L 154 191 L 156 185 L 151 181 L 157 181 Z" fill="#FFD93D"/>
    <path d="M 220 145 L 222 150 L 227 150 L 223 153 L 225 158 L 220 155 L 215 158 L 217 153 L 213 150 L 218 150 Z" fill="#FFA05C"/>
    
    <!-- Badge niveau 5 -->
    <circle cx="230" cy="290" r="12" fill="#27AE60"/>
    <text x="230" y="295" text-anchor="middle" font-family="Arial, sans-serif" font-size="12" font-weight="bold" fill="white">5</text>
    
    <text x="200" y="330" text-anchor="middle" font-family="Arial, sans-serif" font-size="18" font-weight="bold" fill="#2C3E50">EXPLORATEUR</text>
    <text x="200" y="348" text-anchor="middle" font-family="Arial, sans-serif" font-size="14" fill="#7F8C8D">Niveau 5</text>
  </g>
  </svg>