<svg viewBox="0 0 400 400" xmlns="http://www.w3.org/2000/svg">

    <g id="guerrier">
        <circle cx="200" cy="200" r="90" fill="#E74C3C" opacity="0.2"/>
        <circle cx="200" cy="200" r="80" fill="#E74C3C" opacity="0.3"/>
        <circle cx="200" cy="200" r="70" fill="#EC7063"/>
        
        <!-- Tête -->
        <circle cx="200" cy="185" r="25" fill="#2C3E50"/>
        
        <!-- Bandeau -->
        <rect x="180" y="175" width="40" height="8" rx="2" fill="#C0392B"/>
        
        <!-- Corps dynamique -->
        <path d="M 200 210 L 195 260" stroke="#2C3E50" stroke-width="10" stroke-linecap="round"/>
        
        <!-- Bras en garde -->
        <path d="M 200 225 L 170 235" stroke="#2C3E50" stroke-width="8" stroke-linecap="round"/>
        <path d="M 200 225 L 230 220" stroke="#2C3E50" stroke-width="8" stroke-linecap="round"/>
        
        <!-- Poings -->
        <circle cx="170" cy="215" r="9" fill="#2C3E50"/>
        <circle cx="230" cy="215" r="9" fill="#2C3E50"/>
        
        <!-- Jambes en position de combat -->
        <path d="M 195 260 L 175 295" stroke="#2C3E50" stroke-width="9" stroke-linecap="round"/>
        <path d="M 195 260 L 220 255" stroke="#2C3E50" stroke-width="9" stroke-linecap="round"/>
        
        <!-- Flammes d'énergie -->
        <path d="M 235 205 Q 245 195 250 200 Q 252 205 248 210 Q 246 215 240 210" stroke="#F39C12" stroke-width="3" fill="none" stroke-linecap="round"/>
        <path d="M 245 208 Q 255 200 252 212" stroke="#F39C12" stroke-width="2" fill="none" stroke-linecap="round"/>
        
        <path d="M 235 205 Q 225 195 220 200 Q 218 205 224 210 Q 226 215 232 210" stroke="#E67E22" stroke-width="3" fill="none" stroke-linecap="round"/>
        
        <!-- Éclair décoratif -->
        <path d="M 200 260 L 205 270 L 200 270 L 205 280" stroke="#F39C12" stroke-width="3" stroke-linecap="round" stroke-linejoin="round"/>

    </g>
</svg>